<svg xmlns="http://www.w3.org/2000/svg" viewBox="0 0 200 200" fill="none">
  <!-- FloresYa Logo -->
  <circle cx="100" cy="100" r="90" fill="#ff4757"/>

  <!-- Flower petals -->
  <g transform="translate(100, 100)">
    <!-- Center circle -->
    <circle cx="0" cy="0" r="15" fill="#fef08a"/>

    <!-- Petals -->
    <ellipse cx="0" cy="-35" rx="15" ry="25" fill="#fff" opacity="0.95"/>
    <ellipse cx="25" cy="-25" rx="15" ry="25" fill="#fff" opacity="0.95" transform="rotate(45 25 -25)"/>
    <ellipse cx="35" cy="0" rx="15" ry="25" fill="#fff" opacity="0.95" transform="rotate(90 35 0)"/>
    <ellipse cx="25" cy="25" rx="15" ry="25" fill="#fff" opacity="0.95" transform="rotate(135 25 25)"/>
    <ellipse cx="0" cy="35" rx="15" ry="25" fill="#fff" opacity="0.95" transform="rotate(180 0 35)"/>
    <ellipse cx="-25" cy="25" rx="15" ry="25" fill="#fff" opacity="0.95" transform="rotate(225 -25 25)"/>
    <ellipse cx="-35" cy="0" rx="15" ry="25" fill="#fff" opacity="0.95" transform="rotate(270 -35 0)"/>
    <ellipse cx="-25" cy="-25" rx="15" ry="25" fill="#fff" opacity="0.95" transform="rotate(315 -25 -25)"/>
  </g>
</svg>